<svg width="24" height="24" viewBox="0 0 24 24" fill="none" xmlns="http://www.w3.org/2000/svg">
<path d="M12.2269 1.92191C8.65266 1.91254 5.50734 3.76175 3.70969 6.5555C3.63 6.67972 3.71906 6.84379 3.86672 6.84379H5.51437C5.62687 6.84379 5.73234 6.79457 5.80266 6.70785C5.96672 6.50863 6.1425 6.31644 6.32766 6.13363C7.09172 5.37191 7.98 4.77191 8.96906 4.35472C9.99094 3.92347 11.0784 3.70316 12.2011 3.70316C13.3237 3.70316 14.4112 3.92113 15.4331 4.35472C16.4222 4.77191 17.3105 5.37191 18.0745 6.13363C18.8386 6.89535 19.4362 7.78363 19.8558 8.77035C20.2894 9.79222 20.5073 10.8774 20.5073 12C20.5073 13.1227 20.287 14.2078 19.8558 15.2297C19.4386 16.2164 18.8386 17.1047 18.0745 17.8664C17.3105 18.6282 16.4222 19.2282 15.4331 19.6453C14.4104 20.0773 13.3113 20.2989 12.2011 20.2969C11.0784 20.2969 9.99094 20.0766 8.96906 19.6453C7.98193 19.2286 7.08492 18.6245 6.32766 17.8664C6.1425 17.6813 5.96906 17.4891 5.80266 17.2922C5.73234 17.2055 5.62453 17.1563 5.51437 17.1563H3.86672C3.71906 17.1563 3.62766 17.3203 3.70969 17.4446C5.505 20.2313 8.63625 22.0782 12.2011 22.0782C17.737 22.0782 22.2323 17.6227 22.2886 12.1032C22.3448 6.49457 17.8425 1.93597 12.2269 1.92191ZM9.25781 14.625V12.8438H1.89844C1.79531 12.8438 1.71094 12.7594 1.71094 12.6563V11.3438C1.71094 11.2407 1.79531 11.1563 1.89844 11.1563H9.25781V9.37504C9.25781 9.21801 9.44062 9.12894 9.5625 9.22738L12.8883 11.8524C12.9107 11.8699 12.9288 11.8923 12.9413 11.9179C12.9537 11.9435 12.9602 11.9716 12.9602 12C12.9602 12.0285 12.9537 12.0566 12.9413 12.0822C12.9288 12.1077 12.9107 12.1302 12.8883 12.1477L9.5625 14.7727C9.44062 14.8688 9.25781 14.7821 9.25781 14.625Z" fill="white"/>
</svg>
