<svg width="114" height="114" viewBox="0 0 114 114" fill="none" xmlns="http://www.w3.org/2000/svg">
<circle cx="57" cy="57" r="57" fill="white"/>
<circle cx="57.5" cy="57.5" r="39.5" transform="rotate(-90 57.5 57.5)" fill="#086CD9"/>
<circle cx="57.4987" cy="56.806" r="34.194" transform="rotate(-90 57.4987 56.806)" fill="#8FC3FF"/>
<g clip-path="url(#clip0_4858_2)">
<path fill-rule="evenodd" clip-rule="evenodd" d="M49.0125 40.2018C49.4905 40.2019 49.9514 40.3796 50.3058 40.7003C50.6603 41.021 50.883 41.4619 50.9308 41.9375L51.6637 49.2224H71.0754C71.6839 49.2005 72.2884 49.33 72.8346 49.5993C73.3807 49.8686 73.8516 50.2692 74.2048 50.7652C74.5452 51.2368 74.769 51.7824 74.858 52.3572C74.9469 52.932 74.8984 53.5196 74.7165 54.0721L71.5305 63.6507V63.6584C71.2761 64.4138 70.7833 65.0662 70.1262 65.5174C69.4691 65.9686 68.6832 66.1943 67.8868 66.1604H52.8414C51.9449 66.1684 51.0763 65.8488 50.3987 65.2617C49.7212 64.6746 49.2813 63.8603 49.1617 62.9718L47.9197 50.6341C47.9156 50.5896 47.9139 50.545 47.9145 50.5004L47.2665 44.0564H43.0262C42.5147 44.0564 42.0242 43.8532 41.6625 43.4915C41.3008 43.1298 41.0977 42.6393 41.0977 42.1278C41.0977 41.6163 41.3008 41.1258 41.6625 40.7641C42.0242 40.4024 42.5147 40.1992 43.0262 40.1992L49.0125 40.2018ZM67.3982 69.9429C67.796 69.9429 68.1899 70.0213 68.5574 70.1735C68.9249 70.3257 69.2589 70.5489 69.5401 70.8302C69.8214 71.1114 70.0446 71.4454 70.1968 71.8129C70.349 72.1804 70.4274 72.5743 70.4274 72.9721C70.4274 73.3699 70.349 73.7638 70.1968 74.1313C70.0446 74.4988 69.8214 74.8327 69.5401 75.114C69.2589 75.3953 68.9249 75.6184 68.5574 75.7706C68.1899 75.9229 67.796 76.0012 67.3982 76.0012C66.5948 76.0012 65.8244 75.6821 65.2563 75.114C64.6882 74.5459 64.3691 73.7755 64.3691 72.9721C64.3691 72.1687 64.6882 71.3982 65.2563 70.8302C65.8244 70.2621 66.5948 69.9429 67.3982 69.9429ZM57.1922 72.9721C57.204 72.567 57.1344 72.1637 56.9876 71.7861C56.8407 71.4084 56.6196 71.064 56.3373 70.7733C56.0549 70.4827 55.7172 70.2516 55.3439 70.0938C54.9707 69.936 54.5696 69.8547 54.1644 69.8547C53.7591 69.8547 53.358 69.936 52.9848 70.0938C52.6116 70.2516 52.2738 70.4827 51.9915 70.7733C51.7091 71.064 51.488 71.4084 51.3411 71.7861C51.1943 72.1637 51.1247 72.567 51.1365 72.9721C51.1595 73.7598 51.4885 74.5076 52.0539 75.0567C52.6192 75.6058 53.3763 75.913 54.1644 75.913C54.9525 75.913 55.7095 75.6058 56.2749 75.0567C56.8402 74.5076 57.1693 73.7598 57.1922 72.9721ZM61.3734 53.0204C60.9471 53.0204 60.5383 53.1897 60.2369 53.4911C59.9355 53.7925 59.7662 54.2013 59.7662 54.6275V56.3941H57.9997C57.5734 56.3941 57.1646 56.5634 56.8632 56.8648C56.5618 57.1662 56.3925 57.575 56.3925 58.0012C56.3925 58.4275 56.5618 58.8362 56.8632 59.1376C57.1646 59.439 57.5734 59.6084 57.9997 59.6084H59.7662V61.3749C59.7662 61.8012 59.9355 62.21 60.2369 62.5114C60.5383 62.8128 60.9471 62.9821 61.3734 62.9821C61.7996 62.9821 62.2084 62.8128 62.5098 62.5114C62.8112 62.21 62.9805 61.8012 62.9805 61.3749V59.6084H64.7471C65.1733 59.6084 65.5821 59.439 65.8835 59.1376C66.1849 58.8362 66.3542 58.4275 66.3542 58.0012C66.3542 57.575 66.1849 57.1662 65.8835 56.8648C65.5821 56.5634 65.1733 56.3941 64.7471 56.3941H62.9805V54.6275C62.9805 54.2013 62.8112 53.7925 62.5098 53.4911C62.2084 53.1897 61.7996 53.0204 61.3734 53.0204Z" fill="black"/>
</g>
<defs>
<clipPath id="clip0_4858_2">
<rect width="36" height="36" fill="white" transform="translate(40 40)"/>
</clipPath>
</defs>
</svg>
